# xmcd CD database file
#
# Track frame offsets:
#	183
#	93783
#	161398
#
# Disc length: 2923 seconds
#
# Revision: 2
# Processed by: cddbd v1.4PL0 Copyright (c) Steve Scherf et al.
# Submitted via: CDex 1.50
#
DISCID=130b6903
DTITLE=Horace Silver Quartet - Live
DYEAR=1968
DGENRE=Jazz
TTITLE0=The Native Are Restless Tonight
TTITLE1=Serenade To A Soul Sister
TTITLE2=Psychedelic Sally
EXTD=YEAR: 1968
EXTT0=
EXTT1=
EXTT2=
PLAYORDER=
